PathFileType	4	(x/y/z)	S10_P20_T22
DataRate	CameraRate	NumFrames	NumMarkers	Units	OrigDataRate	OrigDataStartFrame	OrigNumFrames
240	240	7	51	mm	240	152	405
Frame#	Time	Sternum			R.Acromium			L.Acromium			Top.Head			R.ASIS			L.ASIS			R.PSIS			L.PSIS			R.Great.Tro			L.Great.Tro			R.Iliac.Crest			L.Iliac.Crest			V.Sacral			R.Thigh.Upper.Post			R.Thigh.Lower.Ant			R.Thigh.Lower.Post			R.Thigh.Upper.Ant			R.Knee.Lat			R.Knee.Med			R.Shank.Upper.Post			R.Shank.Lower.Ant			R.Shank.Lower.Post			R.Shank.Upper.Ant			R.Ankle.Lat			R.Ankle.Med			R.Heel.Upper			R.Heel.Med			R.Heel.Lat			R.Toe.Lat			R.Toe.Med			R.Toe.Tip			L.Thigh.Upper.Post			L.Thigh.Lower.Ant			L.Thigh.Lower.Post			L.Thigh.Upper.Ant			L.Knee.Lat			L.Knee.Med			L.Shank.Upper.Post			L.Shank.Lower.Ant			L.Shank.Lower.Post			L.Shank.Upper.Ant			L.Ankle.Lat			L.Ankle.Med			L.Heel.Upper			L.Heel.Med			L.Heel.Lat			L.Toe.Lat			L.Toe.Med			L.Toe.Tip			Cervical.Spine			Back			
		X1	Y1	Z1	X2	Y2	Z2	X3	Y3	Z3	X4	Y4	Z4	X5	Y5	Z5	X6	Y6	Z6	X7	Y7	Z7	X8	Y8	Z8	X9	Y9	Z9	X10	Y10	Z10	X11	Y11	Z11	X12	Y12	Z12	X13	Y13	Z13	X14	Y14	Z14	X15	Y15	Z15	X16	Y16	Z16	X17	Y17	Z17	X18	Y18	Z18	X19	Y19	Z19	X20	Y20	Z20	X21	Y21	Z21	X22	Y22	Z22	X23	Y23	Z23	X24	Y24	Z24	X25	Y25	Z25	X26	Y26	Z26	X27	Y27	Z27	X28	Y28	Z28	X29	Y29	Z29	X30	Y30	Z30	X31	Y31	Z31	X32	Y32	Z32	X33	Y33	Z33	X34	Y34	Z34	X35	Y35	Z35	X36	Y36	Z36	X37	Y37	Z37	X38	Y38	Z38	X39	Y39	Z39	X40	Y40	Z40	X41	Y41	Z41	X42	Y42	Z42	X43	Y43	Z43	X44	Y44	Z44	X45	Y45	Z45	X46	Y46	Z46	X47	Y47	Z47	X48	Y48	Z48	X49	Y49	Z49	X50	Y50	Z50	X51	Y51	Z51	

152	0.62917	-528.06	1265.7	337.98	-662.29	1415.3	487.89	-643.29	1464	194.75	-685.78	1742.5	368.36	-580.01	1005	437.33	-583.85	1005.7	205.23	-783.18	1021.6	352.95	-777.9	1024.7	272.21	-643.29	930.85	513.22	-649.89	936.88	151.56	-677.95	1084.8	482.46	-653.91	1081.6	177.26	-803.7	989.62	317.91	-573.9	724.8	499.51	-505.02	664.7	452.99	-559.29	637.1	485.76	-519.16	754.76	461.15	-534.22	516.86	438.01	-552.11	526.78	312.66	-592.69	287.18	438.5	-527.44	227.57	415.72	-589.11	213.24	429.88	-524.64	304.57	423.26	-571.74	109.04	404.41	-564.94	121.9	326.33	-635.37	64.237	360.8	-625.73	35.83	334.17	-628.78	40.225	395.17	-454.61	39.937	435.97	-428.2	45.36	325.58	-369.9	63.319	366.71	-698.26	657.29	164.71	-625.24	574.47	175.36	-697.72	563.22	183.89	-619.32	663.23	156.2	-678.9	482.91	184.48	-643.63	466.35	310.66	-860.43	376.83	191.65	-877.29	266.63	195.92	-913.64	320.17	199.53	-823.48	323.05	187.86	-982.9	212.76	207.64	-961.21	207.67	291.26	-1030.3	251.71	253	-1050	230.68	289.04	-1057.9	232.64	225.31	-998.17	72.104	192.52	-969.32	63.617	297.5	-933.01	36.268	254.69	-731.65	1486	345.72	-813.03	1279.9	314.95
153	0.63333	-522.77	1266.2	337.98	-656.35	1415.9	488.16	-638.46	1464.3	194.91	-680.32	1742.9	368.64	-574.51	1005.4	437.64	-578.93	1006	205.49	-777.86	1022	353.78	-772.85	1025	273.01	-637.93	931.28	513.77	-644.85	937.06	152.13	-672.63	1085.2	482.98	-648.61	1081.7	177.75	-798.5	989.92	318.84	-569.51	724.79	500.07	-500.77	664.38	453.75	-555.27	637.03	486.31	-514.48	754.52	461.97	-530.77	516.58	438.42	-547.91	526.77	313.11	-590.87	287.33	438.7	-526.09	227.21	415.91	-587.89	213.37	430.02	-522.65	304.16	423.5	-571.44	109.13	404.39	-564.44	122.04	326.34	-635.38	64.312	360.82	-625.71	35.901	334.2	-628.76	40.262	395.19	-454.58	39.94	436.02	-428.12	45.241	325.54	-369.8	63.022	366.72	-690.27	656.86	164.65	-616.24	574.87	174.71	-688.58	562.75	183.61	-611.42	663.76	155.7	-668.7	483.04	183.83	-632.24	466.03	309.84	-850.55	378.88	191.41	-868.56	268.89	195.22	-904.44	322.76	199.17	-814.23	324.72	187.29	-974.31	216.06	206.95	-952.92	210.61	290.85	-1020.2	256.36	252.36	-1040.6	236.07	288.53	-1048.5	238.12	224.78	-993.69	74.887	192.32	-964.59	65.892	297.34	-929.79	35.938	254.24	-726.26	1486.4	346.22	-807.73	1280.3	315.86
154	0.6375	-517.5	1266.6	337.91	-650.4	1416.5	488.41	-633.68	1464.5	195.04	-674.86	1743.3	368.91	-569.02	1005.7	437.92	-574.03	1006.4	205.74	-772.57	1022.4	354.64	-767.81	1025.3	273.85	-632.59	931.68	514.31	-639.86	937.28	152.69	-667.31	1085.7	483.52	-643.33	1081.8	178.23	-793.33	990.24	319.8	-565.24	724.75	500.6	-496.65	664.01	454.5	-551.4	636.93	486.84	-509.89	754.22	462.76	-527.48	516.29	438.83	-543.93	526.69	313.56	-589.11	287.45	438.91	-524.79	226.86	416.08	-586.71	213.48	430.16	-520.75	303.76	423.73	-571.15	109.22	404.39	-563.97	122.19	326.35	-635.38	64.387	360.84	-625.69	35.974	334.23	-628.74	40.299	395.21	-454.54	39.943	436.08	-428.04	45.141	325.49	-369.7	62.749	366.73	-682.35	656.56	164.62	-607.33	575.39	174.06	-679.51	562.42	183.36	-603.6	664.4	155.2	-658.52	483.32	183.17	-620.95	465.92	309.04	-840.6	380.94	191.13	-859.7	271.17	194.54	-895.14	325.35	198.81	-804.89	326.42	186.73	-965.58	219.31	206.27	-944.46	213.54	290.44	-1010.1	260.82	251.73	-1031.1	241.22	288.02	-1039	243.37	224.23	-988.76	77.707	192.07	-959.4	68.211	297.13	-926.11	35.706	253.73	-720.89	1486.8	346.71	-802.46	1280.7	316.82
155	0.64167	-512.26	1267.1	337.79	-644.42	1417.1	488.64	-628.96	1464.8	195.13	-669.4	1743.7	369.17	-563.54	1006.1	438.17	-569.16	1006.8	205.96	-767.29	1022.7	355.52	-762.8	1025.5	274.7	-627.26	932.06	514.85	-634.93	937.56	153.24	-661.97	1086.2	484.05	-638.1	1082	178.69	-788.17	990.57	320.79	-561.09	724.7	501.12	-492.66	663.59	455.23	-547.67	636.82	487.35	-505.39	753.88	463.54	-524.35	515.99	439.24	-540.18	526.56	314	-587.41	287.57	439.12	-523.54	226.52	416.24	-585.57	213.58	430.3	-518.93	303.37	423.94	-570.86	109.31	404.4	-563.53	122.34	326.37	-635.38	64.463	360.86	-625.67	36.05	334.26	-628.72	40.337	395.23	-454.51	39.946	436.13	-427.96	45.055	325.45	-369.6	62.494	366.73	-674.49	656.37	164.6	-598.51	576.04	173.42	-670.5	562.22	183.15	-595.86	665.15	154.69	-648.36	483.74	182.51	-609.76	466.01	308.28	-830.59	383	190.84	-850.72	273.46	193.89	-885.75	327.93	198.44	-795.47	328.16	186.19	-956.72	222.5	205.62	-935.85	216.45	290.05	-999.9	265.07	251.12	-1021.5	246.09	287.53	-1029.4	248.37	223.69	-983.34	80.539	191.76	-953.73	70.548	296.88	-921.93	35.592	253.15	-715.52	1487.3	347.2	-797.22	1281.2	317.81
156	0.64583	-507.03	1267.5	337.6	-638.44	1417.8	488.84	-624.29	1465.1	195.2	-663.95	1744.2	369.4	-558.07	1006.4	438.4	-564.31	1007.2	206.16	-762.03	1023.1	356.42	-757.8	1025.9	275.58	-621.96	932.43	515.38	-630.05	937.89	153.78	-656.61	1086.6	484.59	-632.92	1082.1	179.14	-783.04	990.93	321.78	-557.05	724.64	501.6	-488.8	663.14	455.95	-544.08	636.68	487.84	-500.99	753.5	464.29	-521.36	515.68	439.64	-536.67	526.39	314.42	-585.77	287.67	439.33	-522.33	226.2	416.37	-584.46	213.68	430.44	-517.17	302.99	424.13	-570.58	109.41	404.42	-563.12	122.49	326.39	-635.36	64.541	360.88	-625.65	36.128	334.29	-628.69	40.378	395.25	-454.48	39.946	436.17	-427.88	44.979	325.4	-369.51	62.253	366.74	-666.68	656.31	164.62	-589.77	576.81	172.78	-661.56	562.17	182.98	-588.19	666	154.18	-638.24	484.3	181.86	-598.68	466.3	307.56	-820.54	385.06	190.52	-841.62	275.75	193.27	-876.28	330.47	198.07	-785.97	329.92	185.65	-947.74	225.6	205	-927.08	219.3	289.66	-989.75	269.09	250.54	-1011.9	250.66	287.05	-1019.7	253.08	223.16	-977.43	83.358	191.4	-947.56	72.876	296.58	-917.19	35.612	252.52	-710.16	1487.8	347.68	-792	1281.6	318.85
157	0.65	-501.83	1268	337.34	-632.43	1418.5	489.03	-619.69	1465.5	195.24	-658.51	1744.7	369.61	-552.61	1006.7	438.61	-559.48	1007.6	206.35	-756.79	1023.5	357.33	-752.82	1026.2	276.48	-616.69	932.78	515.9	-625.21	938.27	154.3	-651.23	1087.1	485.13	-627.8	1082.3	179.57	-777.92	991.3	322.79	-553.11	724.57	502.06	-485.06	662.65	456.63	-540.61	636.54	488.3	-496.68	753.09	465.01	-518.5	515.38	440.03	-533.41	526.19	314.82	-584.19	287.77	439.53	-521.18	225.89	416.49	-583.39	213.78	430.58	-515.49	302.63	424.3	-570.31	109.51	404.44	-562.73	122.65	326.41	-635.35	64.621	360.9	-625.63	36.208	334.32	-628.67	40.422	395.27	-454.44	39.944	436.21	-427.8	44.909	325.36	-369.43	62.022	366.75	-658.93	656.37	164.66	-581.11	577.7	172.15	-652.68	562.25	182.84	-580.61	666.94	153.67	-628.15	485	181.21	-587.73	466.8	306.88	-810.46	387.12	190.18	-832.43	278.01	192.69	-866.73	332.98	197.7	-776.4	331.7	185.13	-938.66	228.6	204.44	-918.16	222.08	289.29	-979.65	272.85	250.02	-1002.2	254.9	286.6	-1010	257.47	222.67	-970.99	86.138	190.98	-940.89	75.17	296.22	-911.84	35.779	251.81	-704.82	1488.3	348.17	-786.8	1282.1	319.94
158	0.65417	-496.64	1268.5	337.04	-626.42	1419.2	489.2	-615.13	1465.8	195.26	-653.06	1745.2	369.8	-547.16	1007	438.8	-554.66	1008	206.53	-751.55	1023.9	358.25	-747.85	1026.6	277.4	-611.43	933.12	516.41	-620.41	938.7	154.81	-645.82	1087.5	485.68	-622.75	1082.6	179.99	-772.81	991.69	323.81	-549.27	724.49	502.49	-481.43	662.14	457.29	-537.26	636.4	488.73	-492.46	752.65	465.69	-515.76	515.08	440.4	-530.4	525.98	315.2	-582.66	287.87	439.73	-520.07	225.6	416.59	-582.35	213.88	430.72	-513.88	302.29	424.44	-570.04	109.62	404.46	-562.37	122.81	326.43	-635.32	64.704	360.91	-625.61	36.292	334.34	-628.64	40.47	395.29	-454.41	39.94	436.24	-427.73	44.842	325.31	-369.34	61.798	366.75	-651.22	656.54	164.73	-572.53	578.71	171.54	-643.86	562.47	182.75	-573.09	667.99	153.16	-618.09	485.84	180.58	-576.91	467.49	306.24	-800.37	389.15	189.83	-823.13	280.24	192.13	-857.12	335.45	197.34	-766.78	333.49	184.62	-929.5	231.48	203.92	-909.09	224.77	288.92	-969.6	276.35	249.55	-992.54	258.77	286.2	-1000.3	261.51	222.22	-964.01	88.854	190.49	-933.71	77.4	295.81	-905.84	36.101	251.03	-699.48	1488.8	348.65	-781.63	1282.6	321.06
